<mxfile host="app.diagrams.net" modified="2021-04-26T00:42:05.300Z" agent="5.0 (X11)" etag="XjIFAM4NuAwEn6q_AU-0" version="14.6.6" type="github">
  <diagram id="6a731a19-8d31-9384-78a2-239565b7b9f0" name="Page-1">
    <mxGraphModel dx="1038" dy="560" grid="1" gridSize="10" guides="1" tooltips="1" connect="1" arrows="1" fold="1" page="1" pageScale="1" pageWidth="1169" pageHeight="827" background="#ffffff" math="0" shadow="0">
      <root>
        <mxCell id="0" />
        <mxCell id="1" parent="0" />
        <mxCell id="1350" value="&lt;div&gt;Principios do Direito&lt;/div&gt;" style="ellipse;whiteSpace=wrap;html=1;shadow=0;fontFamily=Helvetica;fontSize=20;fontColor=#FFFFFF;align=center;strokeWidth=3;fillColor=#1699D3;strokeColor=none;" parent="1" vertex="1">
          <mxGeometry x="523.5" y="271.5" width="120" height="120" as="geometry" />
        </mxCell>
        <mxCell id="1351" value="&lt;div&gt;Fontes de Direito&lt;/div&gt;" style="ellipse;whiteSpace=wrap;html=1;shadow=0;fontFamily=Helvetica;fontSize=20;fontColor=#FFFFFF;align=center;strokeWidth=3;fillColor=#F08705;strokeColor=none;gradientColor=none;" parent="1" vertex="1">
          <mxGeometry x="1103.5" y="241.5" width="120" height="120" as="geometry" />
        </mxCell>
        <mxCell id="1352" value="Características&lt;br&gt;&lt;div&gt;das Normas &lt;br&gt;&lt;/div&gt;&lt;div&gt;Jurídicas&lt;br&gt;&lt;/div&gt;" style="ellipse;whiteSpace=wrap;html=1;shadow=0;fontFamily=Helvetica;fontSize=20;fontColor=#FFFFFF;align=center;strokeWidth=3;fillColor=#E85642;strokeColor=none;" parent="1" vertex="1">
          <mxGeometry x="1270" y="401.5" width="169" height="166.5" as="geometry" />
        </mxCell>
        <mxCell id="1353" value="Dignidade da Pessoa Humana" style="ellipse;whiteSpace=wrap;html=1;shadow=0;fontFamily=Helvetica;fontSize=20;fontColor=#FFFFFF;align=center;strokeWidth=3;fillColor=#1699D3;strokeColor=none;" parent="1" vertex="1">
          <mxGeometry x="1413.5" y="771.5" width="120" height="120" as="geometry" />
        </mxCell>
        <mxCell id="1354" value="Cidadania" style="ellipse;whiteSpace=wrap;html=1;shadow=0;fontFamily=Helvetica;fontSize=20;fontColor=#FFFFFF;align=center;strokeWidth=3;fillColor=#736ca8;strokeColor=none;" parent="1" vertex="1">
          <mxGeometry x="1233.5" y="811.5" width="120" height="120" as="geometry" />
        </mxCell>
        <mxCell id="1355" value="Estado Democrático de Direito" style="ellipse;whiteSpace=wrap;html=1;shadow=0;fontFamily=Helvetica;fontSize=20;fontColor=#FFFFFF;align=center;strokeWidth=3;fillColor=#F08705;strokeColor=none;" parent="1" vertex="1">
          <mxGeometry x="960" y="816.75" width="160" height="126.5" as="geometry" />
        </mxCell>
        <mxCell id="1356" value="&lt;div&gt;Tripartição&lt;/div&gt;" style="ellipse;whiteSpace=wrap;html=1;shadow=0;fontFamily=Helvetica;fontSize=20;fontColor=#FFFFFF;align=center;strokeWidth=3;fillColor=#E85642;strokeColor=none;" parent="1" vertex="1">
          <mxGeometry x="550" y="827" width="120" height="120" as="geometry" />
        </mxCell>
        <mxCell id="1358" value="&lt;div&gt;Relativo À Organização Da&lt;/div&gt;&lt;div&gt;Sociedade&lt;br&gt;&lt;/div&gt;" style="rounded=1;fillColor=#64BBE2;strokeColor=none;strokeWidth=3;shadow=0;html=1;fontColor=#FFFFFF;" parent="1" vertex="1">
          <mxGeometry x="720" y="386.5" width="191.5" height="48.5" as="geometry" />
        </mxCell>
        <mxCell id="1359" style="endArrow=none;strokeWidth=6;strokeColor=#1699D3;html=1;" parent="1" source="1515" target="1350" edge="1">
          <mxGeometry relative="1" as="geometry" />
        </mxCell>
        <mxCell id="1360" style="endArrow=none;strokeWidth=6;strokeColor=#f08705;html=1;" parent="1" source="1515" target="1351" edge="1">
          <mxGeometry relative="1" as="geometry" />
        </mxCell>
        <mxCell id="1361" style="endArrow=none;strokeWidth=6;strokeColor=#E85642;html=1;" parent="1" source="1515" target="1352" edge="1">
          <mxGeometry relative="1" as="geometry" />
        </mxCell>
        <mxCell id="1362" style="endArrow=none;strokeWidth=6;strokeColor=#1699D3;html=1;" parent="1" source="1515" target="1353" edge="1">
          <mxGeometry relative="1" as="geometry" />
        </mxCell>
        <mxCell id="1363" style="endArrow=none;strokeWidth=6;strokeColor=#736CA8;html=1;" parent="1" source="1515" target="1516" edge="1">
          <mxGeometry relative="1" as="geometry" />
        </mxCell>
        <mxCell id="1364" style="endArrow=none;strokeWidth=6;strokeColor=#736ca8;html=1;" parent="1" source="1515" target="1354" edge="1">
          <mxGeometry relative="1" as="geometry" />
        </mxCell>
        <mxCell id="1365" value="" style="edgeStyle=none;endArrow=none;strokeWidth=6;strokeColor=#F08705;html=1;" parent="1" source="1515" target="1355" edge="1">
          <mxGeometry x="181" y="226.5" width="100" height="100" as="geometry">
            <mxPoint x="181" y="326.5" as="sourcePoint" />
            <mxPoint x="281" y="226.5" as="targetPoint" />
          </mxGeometry>
        </mxCell>
        <mxCell id="1366" value="" style="edgeStyle=none;endArrow=none;strokeWidth=6;strokeColor=#E85642;html=1;" parent="1" source="1515" target="1356" edge="1">
          <mxGeometry x="181" y="226.5" width="100" height="100" as="geometry">
            <mxPoint x="181" y="326.5" as="sourcePoint" />
            <mxPoint x="281" y="226.5" as="targetPoint" />
          </mxGeometry>
        </mxCell>
        <mxCell id="1367" value="&lt;div&gt;Relativos À Forma de&lt;/div&gt;&lt;div&gt;Governo e À Organização&lt;/div&gt;&lt;div&gt;Dos Poderes&lt;br&gt;&lt;/div&gt;" style="rounded=1;fillColor=#64BBE2;strokeColor=none;strokeWidth=3;shadow=0;html=1;fontColor=#FFFFFF;" parent="1" vertex="1">
          <mxGeometry x="743.5" y="307.25" width="196.5" height="48.5" as="geometry" />
        </mxCell>
        <mxCell id="1368" value="&lt;div&gt;Relativo À Comunidade&lt;/div&gt;&lt;div&gt;Internacional&lt;br&gt;&lt;/div&gt;" style="rounded=1;fillColor=#64BBE2;strokeColor=none;strokeWidth=3;shadow=0;html=1;fontColor=#FFFFFF;" parent="1" vertex="1">
          <mxGeometry x="293.75" y="441.5" width="151.5" height="40" as="geometry" />
        </mxCell>
        <mxCell id="1369" value="&lt;div&gt;Relativo À Prestação &lt;br&gt;&lt;/div&gt;&lt;div&gt;Positiva Do Estado&lt;br&gt;&lt;/div&gt;" style="rounded=1;fillColor=#64BBE2;strokeColor=none;strokeWidth=3;shadow=0;html=1;fontColor=#FFFFFF;" parent="1" vertex="1">
          <mxGeometry x="315.25" y="346.5" width="130" height="40" as="geometry" />
        </mxCell>
        <mxCell id="1370" value="&lt;div&gt;Relativo ao Regime&lt;/div&gt;&lt;div&gt;Político&lt;br&gt;&lt;/div&gt;" style="rounded=1;fillColor=#64BBE2;strokeColor=none;strokeWidth=3;shadow=0;html=1;fontColor=#FFFFFF;" parent="1" vertex="1">
          <mxGeometry x="350" y="270" width="130" height="40" as="geometry" />
        </mxCell>
        <mxCell id="1371" value="Modo de organização" style="rounded=1;fillColor=#64BBE2;strokeColor=none;strokeWidth=3;shadow=0;html=1;fontColor=#FFFFFF;" parent="1" vertex="1">
          <mxGeometry x="402" y="200" width="130" height="40" as="geometry" />
        </mxCell>
        <mxCell id="1372" value="Abstração Progressiva" style="rounded=1;fillColor=#64BBE2;strokeColor=none;strokeWidth=3;shadow=0;html=1;fontColor=#FFFFFF;" parent="1" vertex="1">
          <mxGeometry x="820" y="80" width="156.5" height="40" as="geometry" />
        </mxCell>
        <mxCell id="1373" value="Direito Positivo" style="rounded=1;fillColor=#64BBE2;strokeColor=none;strokeWidth=3;shadow=0;html=1;fontColor=#FFFFFF;" parent="1" vertex="1">
          <mxGeometry x="592" y="160" width="130" height="40" as="geometry" />
        </mxCell>
        <mxCell id="1374" value="Comparação" style="rounded=1;fillColor=#64BBE2;strokeColor=none;strokeWidth=3;shadow=0;html=1;fontColor=#FFFFFF;" parent="1" vertex="1">
          <mxGeometry x="488.5" y="81.5" width="130" height="40" as="geometry" />
        </mxCell>
        <mxCell id="1375" value="Generalização" style="rounded=1;fillColor=#64BBE2;strokeColor=none;strokeWidth=3;shadow=0;html=1;fontColor=#FFFFFF;" parent="1" vertex="1">
          <mxGeometry x="643.5" y="80" width="130" height="40" as="geometry" />
        </mxCell>
        <mxCell id="1376" value="&lt;div&gt;Relativos À &lt;br&gt;&lt;/div&gt;&lt;div&gt;Existência, Forma, Esttrutura&lt;/div&gt;&lt;div&gt;e Tipo de Estado&lt;br&gt;&lt;/div&gt;" style="rounded=1;fillColor=#64BBE2;strokeColor=none;strokeWidth=3;shadow=0;html=1;fontColor=#FFFFFF;" parent="1" vertex="1">
          <mxGeometry x="717.5" y="228" width="196.5" height="43.5" as="geometry" />
        </mxCell>
        <mxCell id="1377" value="" style="edgeStyle=none;endArrow=none;strokeWidth=3;strokeColor=#64BBE2;html=1;entryX=0;entryY=1;entryDx=0;entryDy=0;" parent="1" source="1350" target="1376" edge="1">
          <mxGeometry x="-221.5" y="56.5" width="100" height="100" as="geometry">
            <mxPoint x="-221.5" y="156.5" as="sourcePoint" />
            <mxPoint x="-121.5" y="56.5" as="targetPoint" />
          </mxGeometry>
        </mxCell>
        <mxCell id="1378" value="" style="edgeStyle=none;endArrow=none;strokeWidth=3;strokeColor=#64BBE2;html=1;" parent="1" source="1350" target="1367" edge="1">
          <mxGeometry x="-221.5" y="56.5" width="100" height="100" as="geometry">
            <mxPoint x="-221.5" y="156.5" as="sourcePoint" />
            <mxPoint x="-121.5" y="56.5" as="targetPoint" />
          </mxGeometry>
        </mxCell>
        <mxCell id="1379" value="" style="edgeStyle=none;endArrow=none;strokeWidth=3;strokeColor=#64BBE2;html=1;" parent="1" source="1350" target="1358" edge="1">
          <mxGeometry x="-221.5" y="56.5" width="100" height="100" as="geometry">
            <mxPoint x="-221.5" y="156.5" as="sourcePoint" />
            <mxPoint x="-121.5" y="56.5" as="targetPoint" />
          </mxGeometry>
        </mxCell>
        <mxCell id="1380" value="" style="edgeStyle=none;endArrow=none;strokeWidth=3;strokeColor=#64BBE2;html=1;" parent="1" source="1350" target="1368" edge="1">
          <mxGeometry x="-221.5" y="56.5" width="100" height="100" as="geometry">
            <mxPoint x="-221.5" y="156.5" as="sourcePoint" />
            <mxPoint x="-121.5" y="56.5" as="targetPoint" />
          </mxGeometry>
        </mxCell>
        <mxCell id="1381" value="" style="edgeStyle=none;endArrow=none;strokeWidth=3;strokeColor=#64BBE2;html=1;" parent="1" source="1350" target="1369" edge="1">
          <mxGeometry x="-221.5" y="56.5" width="100" height="100" as="geometry">
            <mxPoint x="-221.5" y="156.5" as="sourcePoint" />
            <mxPoint x="-121.5" y="56.5" as="targetPoint" />
          </mxGeometry>
        </mxCell>
        <mxCell id="1382" value="" style="edgeStyle=none;endArrow=none;strokeWidth=3;strokeColor=#64BBE2;html=1;" parent="1" source="1350" target="1370" edge="1">
          <mxGeometry x="-221.5" y="56.5" width="100" height="100" as="geometry">
            <mxPoint x="-221.5" y="156.5" as="sourcePoint" />
            <mxPoint x="-121.5" y="56.5" as="targetPoint" />
          </mxGeometry>
        </mxCell>
        <mxCell id="1383" value="" style="edgeStyle=none;endArrow=none;strokeWidth=3;strokeColor=#64BBE2;html=1;" parent="1" source="1350" target="1371" edge="1">
          <mxGeometry x="-221.5" y="56.5" width="100" height="100" as="geometry">
            <mxPoint x="-221.5" y="156.5" as="sourcePoint" />
            <mxPoint x="-121.5" y="56.5" as="targetPoint" />
          </mxGeometry>
        </mxCell>
        <mxCell id="1384" value="" style="edgeStyle=none;endArrow=none;strokeWidth=3;strokeColor=#64BBE2;html=1;exitX=1;exitY=0;exitDx=0;exitDy=0;" parent="1" source="1373" target="1372" edge="1">
          <mxGeometry x="-221.5" y="56.5" width="100" height="100" as="geometry">
            <mxPoint x="-221.5" y="156.5" as="sourcePoint" />
            <mxPoint x="-121.5" y="56.5" as="targetPoint" />
          </mxGeometry>
        </mxCell>
        <mxCell id="1385" value="" style="edgeStyle=none;endArrow=none;strokeWidth=3;strokeColor=#64BBE2;html=1;" parent="1" source="1350" target="1373" edge="1">
          <mxGeometry x="-221.5" y="56.5" width="100" height="100" as="geometry">
            <mxPoint x="-221.5" y="156.5" as="sourcePoint" />
            <mxPoint x="-121.5" y="56.5" as="targetPoint" />
          </mxGeometry>
        </mxCell>
        <mxCell id="1386" value="" style="edgeStyle=none;endArrow=none;strokeWidth=3;strokeColor=#64BBE2;html=1;exitX=0;exitY=0;exitDx=0;exitDy=0;" parent="1" source="1373" target="1374" edge="1">
          <mxGeometry x="-221.5" y="56.5" width="100" height="100" as="geometry">
            <mxPoint x="-221.5" y="156.5" as="sourcePoint" />
            <mxPoint x="-121.5" y="56.5" as="targetPoint" />
          </mxGeometry>
        </mxCell>
        <mxCell id="1387" value="" style="edgeStyle=none;endArrow=none;strokeWidth=3;strokeColor=#64BBE2;html=1;exitX=0.5;exitY=0;exitDx=0;exitDy=0;" parent="1" source="1373" target="1375" edge="1">
          <mxGeometry x="-221.5" y="56.5" width="100" height="100" as="geometry">
            <mxPoint x="-221.5" y="156.5" as="sourcePoint" />
            <mxPoint x="-121.5" y="56.5" as="targetPoint" />
          </mxGeometry>
        </mxCell>
        <mxCell id="1392" value="Fontes Históricas" style="rounded=1;fillColor=#f5af58;strokeColor=none;strokeWidth=3;shadow=0;html=1;fontColor=#FFFFFF;" parent="1" vertex="1">
          <mxGeometry x="1070" y="81.5" width="120" height="40" as="geometry" />
        </mxCell>
        <mxCell id="1393" value="&lt;div&gt;Fontes Materiais&lt;/div&gt;" style="rounded=1;fillColor=#f5af58;strokeColor=none;strokeWidth=3;shadow=0;html=1;fontColor=#FFFFFF;" parent="1" vertex="1">
          <mxGeometry x="1249.5" y="130" width="120" height="40" as="geometry" />
        </mxCell>
        <mxCell id="1394" value="&lt;div&gt;Fontes Formais&lt;/div&gt;" style="rounded=1;fillColor=#f5af58;strokeColor=none;strokeWidth=3;shadow=0;html=1;fontColor=#FFFFFF;" parent="1" vertex="1">
          <mxGeometry x="1369.5" y="201.5" width="120" height="40" as="geometry" />
        </mxCell>
        <mxCell id="1404" value="" style="edgeStyle=none;endArrow=none;strokeWidth=3;strokeColor=#F5AF58;html=1;" parent="1" source="1351" target="1392" edge="1">
          <mxGeometry x="3.5" y="21.5" width="100" height="100" as="geometry">
            <mxPoint x="3.5" y="121.5" as="sourcePoint" />
            <mxPoint x="103.5" y="21.5" as="targetPoint" />
          </mxGeometry>
        </mxCell>
        <mxCell id="1405" value="" style="edgeStyle=none;endArrow=none;strokeWidth=3;strokeColor=#F5AF58;html=1;" parent="1" source="1351" target="1393" edge="1">
          <mxGeometry x="3.5" y="21.5" width="100" height="100" as="geometry">
            <mxPoint x="3.5" y="121.5" as="sourcePoint" />
            <mxPoint x="103.5" y="21.5" as="targetPoint" />
          </mxGeometry>
        </mxCell>
        <mxCell id="1406" value="" style="edgeStyle=none;endArrow=none;strokeWidth=3;strokeColor=#F5AF58;html=1;" parent="1" source="1351" target="1394" edge="1">
          <mxGeometry x="3.5" y="21.5" width="100" height="100" as="geometry">
            <mxPoint x="3.5" y="121.5" as="sourcePoint" />
            <mxPoint x="103.5" y="21.5" as="targetPoint" />
          </mxGeometry>
        </mxCell>
        <mxCell id="1411" value="Imperatividade" style="rounded=1;fillColor=#f08e81;strokeColor=none;strokeWidth=3;shadow=0;html=1;fontColor=#FFFFFF;" parent="1" vertex="1">
          <mxGeometry x="1791" y="616.5" width="120" height="40" as="geometry" />
        </mxCell>
        <mxCell id="1412" value="Coercibilidade" style="rounded=1;fillColor=#f08e81;strokeColor=none;strokeWidth=3;shadow=0;html=1;fontColor=#FFFFFF;" parent="1" vertex="1">
          <mxGeometry x="1751" y="676.5" width="120" height="40" as="geometry" />
        </mxCell>
        <mxCell id="1413" value="Legitimidade" style="rounded=1;fillColor=#f08e81;strokeColor=none;strokeWidth=3;shadow=0;html=1;fontColor=#FFFFFF;" parent="1" vertex="1">
          <mxGeometry x="1249.5" y="681.5" width="120" height="40" as="geometry" />
        </mxCell>
        <mxCell id="1414" value="Efetividade" style="rounded=1;fillColor=#f08e81;strokeColor=none;strokeWidth=3;shadow=0;html=1;fontColor=#FFFFFF;" parent="1" vertex="1">
          <mxGeometry x="1520" y="746.5" width="120" height="40" as="geometry" />
        </mxCell>
        <mxCell id="1415" value="Vigência" style="rounded=1;fillColor=#f08e81;strokeColor=none;strokeWidth=3;shadow=0;html=1;fontColor=#FFFFFF;" parent="1" vertex="1">
          <mxGeometry x="1671" y="731.5" width="120" height="40" as="geometry" />
        </mxCell>
        <mxCell id="1416" value="Direito Difuso" style="rounded=1;fillColor=#f08e81;strokeColor=none;strokeWidth=3;shadow=0;html=1;fontColor=#FFFFFF;" parent="1" vertex="1">
          <mxGeometry x="1770" y="401.5" width="120" height="40" as="geometry" />
        </mxCell>
        <mxCell id="1417" value="&lt;div&gt;Bilateralidade&lt;/div&gt;" style="rounded=1;fillColor=#f08e81;strokeColor=none;strokeWidth=3;shadow=0;html=1;fontColor=#FFFFFF;" parent="1" vertex="1">
          <mxGeometry x="1571" y="346.5" width="120" height="40" as="geometry" />
        </mxCell>
        <mxCell id="1418" value="&lt;div&gt;Direito Privado&lt;/div&gt;" style="rounded=1;fillColor=#f08e81;strokeColor=none;strokeWidth=3;shadow=0;html=1;fontColor=#FFFFFF;" parent="1" vertex="1">
          <mxGeometry x="1711" y="291.5" width="120" height="40" as="geometry" />
        </mxCell>
        <mxCell id="1419" value="&lt;div&gt;Direito Público&lt;/div&gt;" style="rounded=1;fillColor=#f08e81;strokeColor=none;strokeWidth=3;shadow=0;html=1;fontColor=#FFFFFF;" parent="1" vertex="1">
          <mxGeometry x="1431" y="291.5" width="120" height="40" as="geometry" />
        </mxCell>
        <mxCell id="1420" value="Eficácia" style="rounded=1;fillColor=#f08e81;strokeColor=none;strokeWidth=3;shadow=0;html=1;fontColor=#FFFFFF;" parent="1" vertex="1">
          <mxGeometry x="1380" y="716.5" width="120" height="40" as="geometry" />
        </mxCell>
        <mxCell id="1421" value="Generalidade" style="rounded=1;fillColor=#f08e81;strokeColor=none;strokeWidth=3;shadow=0;html=1;fontColor=#FFFFFF;" parent="1" vertex="1">
          <mxGeometry x="1791" y="470" width="120" height="40" as="geometry" />
        </mxCell>
        <mxCell id="1422" value="Abstratividade" style="rounded=1;fillColor=#f08e81;strokeColor=none;strokeWidth=3;shadow=0;html=1;fontColor=#FFFFFF;" parent="1" vertex="1">
          <mxGeometry x="1791" y="540" width="120" height="40" as="geometry" />
        </mxCell>
        <mxCell id="1423" value="" style="edgeStyle=none;endArrow=none;strokeWidth=3;strokeColor=#F08E81;html=1;" parent="1" source="1352" target="1411" edge="1">
          <mxGeometry x="31" y="106.5" width="100" height="100" as="geometry">
            <mxPoint x="31" y="206.5" as="sourcePoint" />
            <mxPoint x="131" y="106.5" as="targetPoint" />
          </mxGeometry>
        </mxCell>
        <mxCell id="1424" value="" style="edgeStyle=none;endArrow=none;strokeWidth=3;strokeColor=#F08E81;html=1;" parent="1" source="1352" target="1413" edge="1">
          <mxGeometry x="31" y="106.5" width="100" height="100" as="geometry">
            <mxPoint x="31" y="206.5" as="sourcePoint" />
            <mxPoint x="131" y="106.5" as="targetPoint" />
          </mxGeometry>
        </mxCell>
        <mxCell id="1425" value="" style="edgeStyle=none;endArrow=none;strokeWidth=3;strokeColor=#F08E81;html=1;" parent="1" source="1352" target="1414" edge="1">
          <mxGeometry x="31" y="106.5" width="100" height="100" as="geometry">
            <mxPoint x="31" y="206.5" as="sourcePoint" />
            <mxPoint x="131" y="106.5" as="targetPoint" />
          </mxGeometry>
        </mxCell>
        <mxCell id="1426" value="" style="edgeStyle=none;endArrow=none;strokeWidth=3;strokeColor=#F08E81;html=1;" parent="1" source="1352" target="1415" edge="1">
          <mxGeometry x="31" y="106.5" width="100" height="100" as="geometry">
            <mxPoint x="31" y="206.5" as="sourcePoint" />
            <mxPoint x="131" y="106.5" as="targetPoint" />
          </mxGeometry>
        </mxCell>
        <mxCell id="1427" value="" style="edgeStyle=none;endArrow=none;strokeWidth=3;strokeColor=#F08E81;html=1;entryX=0;entryY=0;entryDx=0;entryDy=0;exitX=1;exitY=1;exitDx=0;exitDy=0;" parent="1" source="1417" target="1416" edge="1">
          <mxGeometry x="31" y="106.5" width="100" height="100" as="geometry">
            <mxPoint x="31" y="206.5" as="sourcePoint" />
            <mxPoint x="131" y="106.5" as="targetPoint" />
          </mxGeometry>
        </mxCell>
        <mxCell id="1428" value="" style="edgeStyle=none;endArrow=none;strokeWidth=3;strokeColor=#F08E81;html=1;entryX=0;entryY=1;entryDx=0;entryDy=0;" parent="1" source="1352" target="1417" edge="1">
          <mxGeometry x="31" y="106.5" width="100" height="100" as="geometry">
            <mxPoint x="31" y="206.5" as="sourcePoint" />
            <mxPoint x="131" y="106.5" as="targetPoint" />
          </mxGeometry>
        </mxCell>
        <mxCell id="1429" value="" style="edgeStyle=none;endArrow=none;strokeWidth=3;strokeColor=#F08E81;html=1;entryX=0;entryY=1;entryDx=0;entryDy=0;exitX=1;exitY=0;exitDx=0;exitDy=0;" parent="1" source="1417" target="1418" edge="1">
          <mxGeometry x="31" y="106.5" width="100" height="100" as="geometry">
            <mxPoint x="31" y="206.5" as="sourcePoint" />
            <mxPoint x="131" y="106.5" as="targetPoint" />
          </mxGeometry>
        </mxCell>
        <mxCell id="1430" value="" style="edgeStyle=none;endArrow=none;strokeWidth=3;strokeColor=#F08E81;html=1;exitX=0;exitY=0;exitDx=0;exitDy=0;entryX=1;entryY=1;entryDx=0;entryDy=0;" parent="1" source="1417" target="1419" edge="1">
          <mxGeometry x="31" y="106.5" width="100" height="100" as="geometry">
            <mxPoint x="31" y="206.5" as="sourcePoint" />
            <mxPoint x="131" y="106.5" as="targetPoint" />
          </mxGeometry>
        </mxCell>
        <mxCell id="1431" value="" style="edgeStyle=none;endArrow=none;strokeWidth=3;strokeColor=#F08E81;html=1;" parent="1" source="1352" target="1412" edge="1">
          <mxGeometry x="31" y="106.5" width="100" height="100" as="geometry">
            <mxPoint x="31" y="206.5" as="sourcePoint" />
            <mxPoint x="131" y="106.5" as="targetPoint" />
            <Array as="points" />
          </mxGeometry>
        </mxCell>
        <mxCell id="1432" value="" style="edgeStyle=none;endArrow=none;strokeWidth=3;strokeColor=#F08E81;html=1;" parent="1" source="1352" target="1422" edge="1">
          <mxGeometry x="31" y="106.5" width="100" height="100" as="geometry">
            <mxPoint x="31" y="206.5" as="sourcePoint" />
            <mxPoint x="131" y="106.5" as="targetPoint" />
          </mxGeometry>
        </mxCell>
        <mxCell id="1433" value="" style="edgeStyle=none;endArrow=none;strokeWidth=3;strokeColor=#F08E81;html=1;" parent="1" source="1352" target="1421" edge="1">
          <mxGeometry x="31" y="106.5" width="100" height="100" as="geometry">
            <mxPoint x="31" y="206.5" as="sourcePoint" />
            <mxPoint x="131" y="106.5" as="targetPoint" />
          </mxGeometry>
        </mxCell>
        <mxCell id="1434" value="" style="edgeStyle=none;endArrow=none;strokeWidth=3;strokeColor=#F08E81;html=1;" parent="1" source="1352" target="1420" edge="1">
          <mxGeometry x="31" y="106.5" width="100" height="100" as="geometry">
            <mxPoint x="31" y="206.5" as="sourcePoint" />
            <mxPoint x="131" y="106.5" as="targetPoint" />
          </mxGeometry>
        </mxCell>
        <mxCell id="1435" value="Princípio Valor" style="rounded=1;fillColor=#64BBE2;strokeColor=none;strokeWidth=3;shadow=0;html=1;fontColor=#FFFFFF;" parent="1" vertex="1">
          <mxGeometry x="1631" y="827" width="120" height="40" as="geometry" />
        </mxCell>
        <mxCell id="1446" value="" style="edgeStyle=none;endArrow=none;strokeWidth=3;strokeColor=#64BBE2;html=1;" parent="1" source="1353" target="1435" edge="1">
          <mxGeometry x="-24" y="196.5" width="100" height="100" as="geometry">
            <mxPoint x="-24" y="296.5" as="sourcePoint" />
            <mxPoint x="76" y="196.5" as="targetPoint" />
          </mxGeometry>
        </mxCell>
        <mxCell id="1457" value="Votar" style="rounded=1;fillColor=#a29dc5;strokeColor=none;strokeWidth=3;shadow=0;html=1;fontColor=#FFFFFF;" parent="1" vertex="1">
          <mxGeometry x="1460" y="980" width="120" height="40" as="geometry" />
        </mxCell>
        <mxCell id="1459" value="Ser Votado" style="rounded=1;fillColor=#a29dc5;strokeColor=none;strokeWidth=3;shadow=0;html=1;fontColor=#FFFFFF;" parent="1" vertex="1">
          <mxGeometry x="1580" y="910" width="120" height="40" as="geometry" />
        </mxCell>
        <mxCell id="1467" value="" style="edgeStyle=none;endArrow=none;strokeWidth=3;strokeColor=#A29DC5;html=1;" parent="1" source="1354" target="1457" edge="1">
          <mxGeometry x="251" y="-103.5" width="100" height="100" as="geometry">
            <mxPoint x="251" y="-3.5" as="sourcePoint" />
            <mxPoint x="351" y="-103.5" as="targetPoint" />
          </mxGeometry>
        </mxCell>
        <mxCell id="1468" value="&lt;div&gt;Dignidade da Pessoa&lt;/div&gt;&lt;div&gt; Humana&lt;/div&gt;" style="rounded=1;fillColor=#f5af58;strokeColor=none;strokeWidth=3;shadow=0;html=1;fontColor=#FFFFFF;" parent="1" vertex="1">
          <mxGeometry x="1293.5" y="1020" width="156.5" height="40" as="geometry" />
        </mxCell>
        <mxCell id="1477" value="Igualdade" style="rounded=1;fillColor=#f5af58;strokeColor=none;strokeWidth=3;shadow=0;html=1;fontColor=#FFFFFF;" parent="1" vertex="1">
          <mxGeometry x="1000" y="1020" width="120" height="40" as="geometry" />
        </mxCell>
        <mxCell id="1478" value="Liberdade" style="rounded=1;fillColor=#f5af58;strokeColor=none;strokeWidth=3;shadow=0;html=1;fontColor=#FFFFFF;" parent="1" vertex="1">
          <mxGeometry x="1150" y="1020" width="120" height="40" as="geometry" />
        </mxCell>
        <mxCell id="1479" value="" style="edgeStyle=none;endArrow=none;strokeWidth=3;strokeColor=#F5AF58;html=1;" parent="1" source="1355" target="1478" edge="1">
          <mxGeometry x="243.5" y="39" width="100" height="100" as="geometry">
            <mxPoint x="243.5" y="139" as="sourcePoint" />
            <mxPoint x="343.5" y="39" as="targetPoint" />
          </mxGeometry>
        </mxCell>
        <mxCell id="1480" value="" style="edgeStyle=none;endArrow=none;strokeWidth=3;strokeColor=#F5AF58;html=1;" parent="1" source="1355" target="1468" edge="1">
          <mxGeometry x="243.5" y="39" width="100" height="100" as="geometry">
            <mxPoint x="243.5" y="139" as="sourcePoint" />
            <mxPoint x="343.5" y="39" as="targetPoint" />
          </mxGeometry>
        </mxCell>
        <mxCell id="1489" value="" style="edgeStyle=none;endArrow=none;strokeWidth=3;strokeColor=#F5AF58;html=1;" parent="1" source="1355" target="1477" edge="1">
          <mxGeometry x="243.5" y="39" width="100" height="100" as="geometry">
            <mxPoint x="243.5" y="139" as="sourcePoint" />
            <mxPoint x="343.5" y="39" as="targetPoint" />
          </mxGeometry>
        </mxCell>
        <mxCell id="1490" value="Legislativo" style="rounded=1;fillColor=#f08e81;strokeColor=none;strokeWidth=3;shadow=0;html=1;fontColor=#FFFFFF;" parent="1" vertex="1">
          <mxGeometry x="592" y="1000" width="120" height="40" as="geometry" />
        </mxCell>
        <mxCell id="1491" value="Executivo" style="rounded=1;fillColor=#f08e81;strokeColor=none;strokeWidth=3;shadow=0;html=1;fontColor=#FFFFFF;" parent="1" vertex="1">
          <mxGeometry x="445.25" y="995" width="120" height="40" as="geometry" />
        </mxCell>
        <mxCell id="1492" value="Judiciário" style="rounded=1;fillColor=#f08e81;strokeColor=none;strokeWidth=3;shadow=0;html=1;fontColor=#FFFFFF;" parent="1" vertex="1">
          <mxGeometry x="743.5" y="1020" width="120" height="40" as="geometry" />
        </mxCell>
        <mxCell id="1503" value="" style="edgeStyle=none;endArrow=none;strokeWidth=3;strokeColor=#F08E81;html=1;" parent="1" source="1356" target="1490" edge="1">
          <mxGeometry x="188.5" y="51.5" width="100" height="100" as="geometry">
            <mxPoint x="188.5" y="151.5" as="sourcePoint" />
            <mxPoint x="288.5" y="51.5" as="targetPoint" />
          </mxGeometry>
        </mxCell>
        <mxCell id="1504" value="" style="edgeStyle=none;endArrow=none;strokeWidth=3;strokeColor=#F08E81;html=1;" parent="1" source="1356" target="1491" edge="1">
          <mxGeometry x="188.5" y="51.5" width="100" height="100" as="geometry">
            <mxPoint x="188.5" y="151.5" as="sourcePoint" />
            <mxPoint x="288.5" y="51.5" as="targetPoint" />
          </mxGeometry>
        </mxCell>
        <mxCell id="1505" value="" style="edgeStyle=none;endArrow=none;strokeWidth=3;strokeColor=#F08E81;html=1;" parent="1" source="1356" target="1492" edge="1">
          <mxGeometry x="188.5" y="51.5" width="100" height="100" as="geometry">
            <mxPoint x="188.5" y="151.5" as="sourcePoint" />
            <mxPoint x="288.5" y="51.5" as="targetPoint" />
          </mxGeometry>
        </mxCell>
        <mxCell id="1514" style="edgeStyle=orthogonalEdgeStyle;rounded=0;html=1;exitX=0.75;exitY=0;entryX=0.75;entryY=0;startArrow=none;startFill=0;endArrow=block;endFill=1;jettySize=auto;orthogonalLoop=1;strokeColor=#12aab5;strokeWidth=6;fontSize=20;fontColor=#2F5B7C;" parent="1" source="1414" target="1414" edge="1">
          <mxGeometry relative="1" as="geometry" />
        </mxCell>
        <mxCell id="1515" value="&lt;div&gt;Constituição&lt;/div&gt;&lt;div&gt;de&lt;/div&gt;&lt;div&gt;1988&lt;br&gt;&lt;/div&gt;" style="ellipse;whiteSpace=wrap;html=1;shadow=0;fontFamily=Helvetica;fontSize=30;fontColor=#2F5B7C;align=center;strokeColor=#2F5B7C;strokeWidth=6;fillColor=#FFFFFF;fontStyle=1;gradientColor=none;" parent="1" vertex="1">
          <mxGeometry x="743.5" y="516.5" width="270" height="270" as="geometry" />
        </mxCell>
        <mxCell id="1516" value="Republica Federativa" style="ellipse;whiteSpace=wrap;html=1;shadow=0;fontFamily=Helvetica;fontSize=20;fontColor=#FFFFFF;align=center;strokeWidth=3;fillColor=#736ca8;strokeColor=none;" parent="1" vertex="1">
          <mxGeometry x="523.5" y="540" width="120" height="120" as="geometry" />
        </mxCell>
        <mxCell id="1518" value="Governo Federal" style="rounded=1;fillColor=#a29dc5;strokeColor=none;strokeWidth=3;shadow=0;html=1;fontColor=#FFFFFF;" parent="1" vertex="1">
          <mxGeometry x="293.75" y="540" width="120" height="40" as="geometry" />
        </mxCell>
        <mxCell id="1519" value="Governo Estadual" style="rounded=1;fillColor=#a29dc5;strokeColor=none;strokeWidth=3;shadow=0;html=1;fontColor=#FFFFFF;" parent="1" vertex="1">
          <mxGeometry x="293.75" y="610" width="120" height="40" as="geometry" />
        </mxCell>
        <mxCell id="1520" value="Governo Municipal" style="rounded=1;fillColor=#a29dc5;strokeColor=none;strokeWidth=3;shadow=0;html=1;fontColor=#FFFFFF;" parent="1" vertex="1">
          <mxGeometry x="293.75" y="681.5" width="120" height="40" as="geometry" />
        </mxCell>
        <mxCell id="1521" value="&lt;div&gt;Soberania&lt;/div&gt;" style="rounded=1;fillColor=#a29dc5;strokeColor=none;strokeWidth=3;shadow=0;html=1;fontColor=#FFFFFF;" parent="1" vertex="1">
          <mxGeometry x="368.5" y="740" width="120" height="40" as="geometry" />
        </mxCell>
        <mxCell id="1530" value="" style="edgeStyle=none;endArrow=none;strokeWidth=3;strokeColor=#A29DC5;html=1;" parent="1" source="1516" target="1518" edge="1">
          <mxGeometry x="-1498" y="-303.5" width="100" height="100" as="geometry">
            <mxPoint x="-1498" y="-203.5" as="sourcePoint" />
            <mxPoint x="-1398" y="-303.5" as="targetPoint" />
          </mxGeometry>
        </mxCell>
        <mxCell id="1531" value="" style="edgeStyle=none;endArrow=none;strokeWidth=3;strokeColor=#A29DC5;html=1;" parent="1" source="1516" target="1519" edge="1">
          <mxGeometry x="-1498" y="-303.5" width="100" height="100" as="geometry">
            <mxPoint x="-1498" y="-203.5" as="sourcePoint" />
            <mxPoint x="-1398" y="-303.5" as="targetPoint" />
          </mxGeometry>
        </mxCell>
        <mxCell id="1532" value="" style="edgeStyle=none;endArrow=none;strokeWidth=3;strokeColor=#A29DC5;html=1;" parent="1" source="1516" target="1520" edge="1">
          <mxGeometry x="-1498" y="-303.5" width="100" height="100" as="geometry">
            <mxPoint x="-1498" y="-203.5" as="sourcePoint" />
            <mxPoint x="-1398" y="-303.5" as="targetPoint" />
          </mxGeometry>
        </mxCell>
        <mxCell id="1533" value="" style="edgeStyle=none;endArrow=none;strokeWidth=3;strokeColor=#A29DC5;html=1;" parent="1" source="1516" target="1521" edge="1">
          <mxGeometry x="-1498" y="-303.5" width="100" height="100" as="geometry">
            <mxPoint x="-1498" y="-203.5" as="sourcePoint" />
            <mxPoint x="-1398" y="-303.5" as="targetPoint" />
          </mxGeometry>
        </mxCell>
        <mxCell id="1541" value="" style="edgeStyle=none;endArrow=none;strokeWidth=3;strokeColor=#A29DC5;html=1;" parent="1" source="1354" target="1459" edge="1">
          <mxGeometry x="-1174" y="-408.5" width="100" height="100" as="geometry">
            <mxPoint x="-1174" y="-308.5" as="sourcePoint" />
            <mxPoint x="-1074" y="-408.5" as="targetPoint" />
          </mxGeometry>
        </mxCell>
        <mxCell id="1542" style="edgeStyle=none;rounded=0;html=1;exitX=0.5;exitY=1;endArrow=none;endFill=0;jettySize=auto;orthogonalLoop=1;strokeColor=#736CA8;strokeWidth=2;fillColor=#64bbe2;fontSize=20;fontColor=#23445D;" parent="1" edge="1">
          <mxGeometry relative="1" as="geometry">
            <mxPoint x="137" y="771.5" as="sourcePoint" />
            <mxPoint x="137" y="771.5" as="targetPoint" />
          </mxGeometry>
        </mxCell>
        <mxCell id="YLyoCqjBOIZk7H9pUfRG-1548" value="Valores Sociais do Trabalho e da Livre Iniciativa" style="ellipse;whiteSpace=wrap;html=1;shadow=0;fontFamily=Helvetica;fontSize=20;fontColor=#FFFFFF;align=center;strokeWidth=3;fillColor=#1699D3;strokeColor=none;" vertex="1" parent="1">
          <mxGeometry x="260" y="811.5" width="220" height="183.5" as="geometry" />
        </mxCell>
        <mxCell id="YLyoCqjBOIZk7H9pUfRG-1549" style="endArrow=none;strokeWidth=6;strokeColor=#1699D3;html=1;" edge="1" parent="1" target="YLyoCqjBOIZk7H9pUfRG-1548" source="1515">
          <mxGeometry relative="1" as="geometry">
            <mxPoint x="1301.0105845398236" y="716.4994154601764" as="sourcePoint" />
          </mxGeometry>
        </mxCell>
        <mxCell id="YLyoCqjBOIZk7H9pUfRG-1555" value="Pluralismo Político" style="ellipse;whiteSpace=wrap;html=1;shadow=0;fontFamily=Helvetica;fontSize=20;fontColor=#FFFFFF;align=center;strokeWidth=3;fillColor=#1699D3;strokeColor=none;" vertex="1" parent="1">
          <mxGeometry x="838.25" y="891.5" width="120" height="120" as="geometry" />
        </mxCell>
        <mxCell id="YLyoCqjBOIZk7H9pUfRG-1556" style="endArrow=none;strokeWidth=6;strokeColor=#1699D3;html=1;" edge="1" parent="1" target="YLyoCqjBOIZk7H9pUfRG-1555" source="1515">
          <mxGeometry relative="1" as="geometry">
            <mxPoint x="833.2720024096943" y="811.5001275383698" as="sourcePoint" />
          </mxGeometry>
        </mxCell>
      </root>
    </mxGraphModel>
  </diagram>
</mxfile>
